<svg xmlns="http://www.w3.org/2000/svg" viewBox="0 0 24 24">
    <defs>
        <!-- Symbol for INFO -->
        <symbol id="info" viewBox="0 0 24 24">
            <path stroke-linecap="round" stroke-linejoin="round" stroke-width="2"
                  d="M13 16h-1v-4h-1m1-4h.01M21 12a9 9 0 11-18 0 9 9 0 0118 0z"
                  fill="none" stroke="currentColor"/>
        </symbol>

        <!-- Symbol for SUCCESS -->
        <symbol id="success" viewBox="0 0 24 24">
            <path stroke-linecap="round" stroke-linejoin="round" stroke-width="2"
                  d="M9 12l2 2 4-4m6 2a9 9 0 11-18 0 9 9 0 0118 0z"
                  fill="none" stroke="currentColor"/>
        </symbol>

        <!-- Symbol for WARNING -->
        <symbol id="warning" viewBox="0 0 24 24">
            <path stroke-linecap="round" stroke-linejoin="round" stroke-width="2"
                  d="M12 9v2m0 4h.01m-6.938 4h13.856c1.54 0 2.502-1.667 1.732-2.5L13.732 4c-.77-.833-1.732-.833-2.464 0L4.35 16.5c-.77.833.192 2.5 1.732 2.5z"
                  fill="none" stroke="currentColor"/>
        </symbol>

        <!-- Symbol for ERROR -->
        <symbol id="error" viewBox="0 0 24 24">
            <path stroke-linecap="round" stroke-linejoin="round" stroke-width="2"
                  d="M10 14l2-2m0 0l2-2m-2 2l-2-2m2 2l2 2m7-2a9 9 0 11-18 0 9 9 0 0118 0z"
                  fill="none" stroke="currentColor"/>
        </symbol>
    </defs>
</svg>